<svg version="1.1" viewBox="0.0 0.0 400.0 300.0" width="400" height="300" fill="none" stroke="none" stroke-linecap="square" stroke-miterlimit="10" xmlns:xlink="http://www.w3.org/1999/xlink" xmlns="http://www.w3.org/2000/svg"><clipPath id="p.0"><path d="m0 0l960.0 0l0 720.0l-960.0 0l0 -720.0z" clip-rule="nonzero"/></clipPath><g clip-path="url(#p.0)"><path fill="#000000" fill-opacity="0.0" d="m0 0l960.0 0l0 720.0l-960.0 0z" fill-rule="evenodd"/><path fill="#000000" fill-opacity="0.0" d="m0 168.61417l0 0c0 -71.03164 57.582527 -128.61417 128.61417 -128.61417l0 0c34.11061 0 66.82413 13.5503845 90.943954 37.67022c24.119843 24.119835 37.67021 56.83335 37.67021 90.94395l0 0c0 71.03165 -57.58252 128.61417 -128.61417 128.61417l0 0c-71.03164 0 -128.61417 -57.58252 -128.61417 -128.61417z" fill-rule="evenodd"/><path stroke="#000000" stroke-width="1.0" stroke-linejoin="round" stroke-linecap="butt" d="m0 168.61417l0 0c0 -71.03164 57.582527 -128.61417 128.61417 -128.61417l0 0c34.11061 0 66.82413 13.5503845 90.943954 37.67022c24.119843 24.119835 37.67021 56.83335 37.67021 90.94395l0 0c0 71.03165 -57.58252 128.61417 -128.61417 128.61417l0 0c-71.03164 0 -128.61417 -57.58252 -128.61417 -128.61417z" fill-rule="evenodd"/><path fill="#000000" fill-opacity="0.0" d="m47.54331 168.61417l0 0c0 -44.774193 36.296665 -81.07086 81.07086 -81.07086l0 0c21.501343 0 42.122025 8.541374 57.32576 23.74511c15.203735 15.203735 23.745117 35.824425 23.745117 57.325752l0 0c0 44.774216 -36.29666 81.07088 -81.07088 81.07088l0 0c-44.774193 0 -81.07086 -36.29666 -81.07086 -81.07088z" fill-rule="evenodd"/><path stroke="#000000" stroke-width="1.0" stroke-linejoin="round" stroke-linecap="butt" d="m47.54331 168.61417l0 0c0 -44.774193 36.296665 -81.07086 81.07086 -81.07086l0 0c21.501343 0 42.122025 8.541374 57.32576 23.74511c15.203735 15.203735 23.745117 35.824425 23.745117 57.325752l0 0c0 44.774216 -36.29666 81.07088 -81.07088 81.07088l0 0c-44.774193 0 -81.07086 -36.29666 -81.07086 -81.07088z" fill-rule="evenodd"/><path fill="#000000" fill-opacity="0.0" d="m185.93993 111.288414l33.606308 -33.6063" fill-rule="evenodd"/><path stroke="#000000" stroke-width="1.0" stroke-linejoin="round" stroke-linecap="butt" d="m185.93993 111.288414l33.606308 -33.6063" fill-rule="evenodd"/><path fill="#000000" fill-opacity="0.0" d="m209.68504 168.61417l47.559036 0" fill-rule="evenodd"/><path stroke="#000000" stroke-width="1.0" stroke-linejoin="round" stroke-linecap="butt" d="m209.68504 168.61417l47.559036 0" fill-rule="evenodd"/><path fill="#000000" fill-opacity="0.0" d="m185.93993 225.93993l33.606308 33.606308" fill-rule="evenodd"/><path stroke="#000000" stroke-width="1.0" stroke-linejoin="round" stroke-linecap="butt" d="m185.93993 225.93993l33.606308 33.606308" fill-rule="evenodd"/><path fill="#000000" fill-opacity="0.0" d="m128.61417 249.68504l0 47.559036" fill-rule="evenodd"/><path stroke="#000000" stroke-width="1.0" stroke-linejoin="round" stroke-linecap="butt" d="m128.61417 249.68504l0 47.559036" fill-rule="evenodd"/><path fill="#000000" fill-opacity="0.0" d="m71.288414 225.93993l-33.6063 33.606308" fill-rule="evenodd"/><path stroke="#000000" stroke-width="1.0" stroke-linejoin="round" stroke-linecap="butt" d="m71.288414 225.93993l-33.6063 33.606308" fill-rule="evenodd"/><path fill="#000000" fill-opacity="0.0" d="m47.54331 168.61417l-47.52756 0" fill-rule="evenodd"/><path stroke="#000000" stroke-width="1.0" stroke-linejoin="round" stroke-linecap="butt" d="m47.54331 168.61417l-47.52756 0" fill-rule="evenodd"/><path fill="#000000" fill-opacity="0.0" d="m71.288414 111.288414l-33.6063 -33.6063" fill-rule="evenodd"/><path stroke="#000000" stroke-width="1.0" stroke-linejoin="round" stroke-linecap="butt" d="m71.288414 111.288414l-33.6063 -33.6063" fill-rule="evenodd"/><path fill="#000000" fill-opacity="0.0" d="m128.61417 87.543304l0 -47.527557" fill-rule="evenodd"/><path stroke="#000000" stroke-width="1.0" stroke-linejoin="round" stroke-linecap="butt" d="m128.61417 87.543304l0 -47.527557" fill-rule="evenodd"/><path fill="#000000" fill-opacity="0.0" d="m146.53018 52.650917l33.606308 0l0 42.015747l-33.606308 0z" fill-rule="evenodd"/><path fill="#000000" fill-opacity="0.0" d="m155.53018 62.681908l10.375717 0l0 21.452866l-10.375717 0l0 -21.452866z" fill-rule="nonzero"/><path fill="#000000" d="m160.65518 66.164665q1.9375 0 3.03125 1.375q1.296875 1.640625 1.296875 5.4375q0 3.796875 -1.3125 5.453125q-1.078125 1.375 -3.015625 1.375q-1.953125 0 -3.15625 -1.5q-1.1875 -1.5 -1.1875 -5.34375q0 -3.78125 1.3125 -5.4375q1.078125 -1.359375 3.03125 -1.359375zm0 2.125q-0.46875 0 -0.84375 0.296875q-0.359375 0.296875 -0.5625 1.0625q-0.25 0.984375 -0.25 3.328125q0 2.359375 0.234375 3.234375q0.234375 0.875 0.59375 1.171875q0.359375 0.296875 0.828125 0.296875q0.453125 0 0.8125 -0.296875q0.375 -0.296875 0.578125 -1.0625q0.265625 -0.984375 0.265625 -3.34375q0 -2.34375 -0.25 -3.21875q-0.234375 -0.875 -0.59375 -1.171875q-0.359375 -0.296875 -0.8125 -0.296875z" fill-rule="nonzero"/><path fill="#000000" fill-opacity="0.0" d="m165.9059 62.681908l0 0l0 21.452866l0 0l0 -21.452866z" fill-rule="nonzero"/><path fill="#000000" d="m155.53018 80.78425l10.375717 0l0 1.6800003l-10.375717 0l0 -1.6800003z" fill-rule="nonzero"/><path fill="#000000" fill-opacity="0.0" d="m209.68504 111.28871l33.606293 0l0 42.015747l-33.606293 0z" fill-rule="evenodd"/><path fill="#000000" fill-opacity="0.0" d="m218.68504 121.3197l10.375717 0l0 21.452866l-10.375717 0l0 -21.452866z" fill-rule="nonzero"/><path fill="#000000" d="m226.0288 138.20871l-2.5625 0l0 -9.640625q-1.40625 1.3125 -3.3125 1.9375l0 -2.328125q1.015625 -0.328125 2.1875 -1.234375q1.171875 -0.921875 1.609375 -2.140625l2.078125 0l0 13.40625z" fill-rule="nonzero"/><path fill="#010000" fill-opacity="0.0" d="m229.06076 121.3197l0 0l0 21.452866l0 0l0 -21.452866z" fill-rule="nonzero"/><path fill="#000000" d="m218.68504 139.42204l10.375717 0l0 1.6800079l-10.375717 0l0 -1.6800079z" fill-rule="nonzero"/><path fill="#000000" fill-opacity="0.0" d="m209.68504 183.92389l33.606293 0l0 42.015747l-33.606293 0z" fill-rule="evenodd"/><path fill="#000000" fill-opacity="0.0" d="m218.68504 193.95488l10.375717 0l0 21.452866l-10.375717 0l0 -21.452866z" fill-rule="nonzero"/><path fill="#000000" d="m228.12254 208.46889l0 2.375l-8.96875 0q0.140625 -1.34375 0.859375 -2.546875q0.734375 -1.21875 2.890625 -3.203125q1.734375 -1.625 2.125 -2.1875q0.53125 -0.796875 0.53125 -1.578125q0 -0.84375 -0.46875 -1.296875q-0.453125 -0.46875 -1.265625 -0.46875q-0.796875 0 -1.28125 0.484375q-0.46875 0.46875 -0.546875 1.59375l-2.546875 -0.25q0.234375 -2.109375 1.421875 -3.03125q1.203125 -0.921875 3.015625 -0.921875q1.96875 0 3.09375 1.0625q1.140625 1.0625 1.140625 2.65625q0 0.890625 -0.328125 1.71875q-0.3125 0.8125 -1.015625 1.703125q-0.46875 0.59375 -1.6875 1.703125q-1.203125 1.109375 -1.53125 1.484375q-0.3125 0.359375 -0.515625 0.703125l5.078125 0z" fill-rule="nonzero"/><path fill="#010000" fill-opacity="0.0" d="m229.06076 193.95488l0 0l0 21.452866l0 0l0 -21.452866z" fill-rule="nonzero"/><path fill="#000000" d="m218.68504 212.05722l10.375717 0l0 1.6799927l-10.375717 0l0 -1.6799927z" fill-rule="nonzero"/><path fill="#000000" fill-opacity="0.0" d="m146.53018 249.68504l33.606308 0l0 42.01573l-33.606308 0z" fill-rule="evenodd"/><path fill="#000000" d="m156.31143 273.0738l1.640625 -0.21875q0.28125 1.40625 0.953125 2.015625q0.6875 0.609375 1.65625 0.609375q1.15625 0 1.953125 -0.796875q0.796875 -0.796875 0.796875 -1.984375q0 -1.125 -0.734375 -1.859375q-0.734375 -0.734375 -1.875 -0.734375q-0.46875 0 -1.15625 0.171875l0.1875 -1.4375q0.15625 0.015625 0.265625 0.015625q1.046875 0 1.875 -0.546875q0.84375 -0.546875 0.84375 -1.671875q0 -0.90625 -0.609375 -1.5q-0.609375 -0.59375 -1.578125 -0.59375q-0.953125 0 -1.59375 0.609375q-0.640625 0.59375 -0.8125 1.796875l-1.640625 -0.296875q0.296875 -1.640625 1.359375 -2.546875q1.0625 -0.90625 2.65625 -0.90625q1.09375 0 2.0 0.46875q0.921875 0.46875 1.40625 1.28125q0.5 0.8125 0.5 1.71875q0 0.859375 -0.46875 1.578125q-0.46875 0.703125 -1.375 1.125q1.1875 0.28125 1.84375 1.140625q0.65625 0.859375 0.65625 2.15625q0 1.734375 -1.28125 2.953125q-1.265625 1.21875 -3.21875 1.21875q-1.765625 0 -2.921875 -1.046875q-1.15625 -1.046875 -1.328125 -2.71875z" fill-rule="nonzero"/><path fill="#000000" fill-opacity="0.0" d="m65.055115 241.04462l33.6063 0l0 42.015747l-33.6063 0z" fill-rule="evenodd"/><path fill="#000000" d="m80.086365 267.96463l0 -3.203125l-5.796875 0l0 -1.5l6.09375 -8.656265l1.34375 0l0 8.656265l1.796875 0l0 1.5l-1.796875 0l0 3.203125l-1.640625 0zm0 -4.703125l0 -6.015625l-4.1875 6.015625l4.1875 0z" fill-rule="nonzero"/><path fill="#000000" fill-opacity="0.0" d="m13.937008 183.92389l33.6063 0l0 42.015747l-33.6063 0z" fill-rule="evenodd"/><path fill="#000000" d="m23.718258 207.34389l1.71875 -0.140625q0.1875 1.25 0.875 1.890625q0.703125 0.625 1.6875 0.625q1.1875 0 2.0 -0.890625q0.828125 -0.890625 0.828125 -2.359375q0 -1.40625 -0.796875 -2.21875q-0.78125 -0.8125 -2.0625 -0.8125q-0.78125 0 -1.421875 0.359375q-0.640625 0.359375 -1.0 0.9375l-1.546875 -0.203125l1.296875 -6.859375l6.640625 0l0 1.5625l-5.328125 0l-0.71875 3.59375q1.203125 -0.84375 2.515625 -0.84375q1.75 0 2.953125 1.21875q1.203125 1.203125 1.203125 3.109375q0 1.8125 -1.046875 3.140625q-1.296875 1.625 -3.515625 1.625q-1.8125 0 -2.96875 -1.015625q-1.15625 -1.03125 -1.3125 -2.71875z" fill-rule="nonzero"/><path fill="#000000" fill-opacity="0.0" d="m13.937008 111.28871l33.6063 0l0 42.015747l-33.6063 0z" fill-rule="evenodd"/><path fill="#000000" d="m32.218258 128.13058l-1.625 0.125q-0.21875 -0.96875 -0.625 -1.40625q-0.65625 -0.703125 -1.640625 -0.703125q-0.78125 0 -1.375 0.4375q-0.765625 0.5625 -1.21875 1.65625q-0.453125 1.078125 -0.46875 3.078125q0.59375 -0.890625 1.453125 -1.328125q0.859375 -0.4375 1.796875 -0.4375q1.640625 0 2.78125 1.203125q1.15625 1.203125 1.15625 3.109375q0 1.265625 -0.546875 2.34375q-0.53125 1.078125 -1.484375 1.65625q-0.9375 0.578125 -2.140625 0.578125q-2.0625 0 -3.359375 -1.5q-1.28125 -1.515625 -1.28125 -4.984375q0 -3.875 1.421875 -5.625q1.25 -1.53125 3.375 -1.53125q1.5625 0 2.5625 0.890625q1.015625 0.875 1.21875 2.4375zm-6.6875 5.75q0 0.84375 0.359375 1.625q0.359375 0.765625 1.0 1.171875q0.640625 0.40625 1.359375 0.40625q1.03125 0 1.78125 -0.828125q0.75 -0.84375 0.75 -2.28125q0 -1.390625 -0.734375 -2.1875q-0.734375 -0.796875 -1.859375 -0.796875q-1.109375 0 -1.890625 0.796875q-0.765625 0.796875 -0.765625 2.09375z" fill-rule="nonzero"/><path fill="#000000" fill-opacity="0.0" d="m71.28871 52.650917l33.6063 0l0 42.015747l-33.6063 0z" fill-rule="evenodd"/><path fill="#000000" d="m81.17934 67.96154l0 -1.578125l8.640625 0l0 1.28125q-1.28125 1.359375 -2.53125 3.609375q-1.25 2.25 -1.9375 4.625q-0.484375 1.671875 -0.625 3.671875l-1.6875 0q0.03125 -1.578125 0.625 -3.8125q0.59375 -2.234375 1.6875 -4.296875q1.109375 -2.078125 2.359375 -3.5l-6.53125 0z" fill-rule="nonzero"/><path fill="#000000" fill-opacity="0.0" d="m226.6483 34.790028l-24.251968 24.251968" fill-rule="evenodd"/><path stroke="#000000" stroke-width="1.0" stroke-linejoin="round" stroke-linecap="butt" d="m226.6483 34.790028l-20.009338 20.009327" fill-rule="evenodd"/><path fill="#000000" stroke="#000000" stroke-width="1.0" stroke-linecap="butt" d="m205.47101 53.631405l-2.0409546 4.376869l4.3768616 -2.0409698z" fill-rule="evenodd"/><path fill="#000000" fill-opacity="0.0" d="m226.6483 5.2913384l128.5984 0l0 42.015747l-128.5984 0z" fill-rule="evenodd"/><path fill="#000000" d="m236.86705 32.211338l0 -9.671877l1.46875 0l0 1.46875q0.5625 -1.03125 1.03125 -1.359375q0.484375 -0.328125 1.0625 -0.328125q0.828125 0 1.6875 0.53125l-0.5625 1.515625q-0.609375 -0.359375 -1.203125 -0.359375q-0.546875 0 -0.96875 0.328125q-0.421875 0.328125 -0.609375 0.890625q-0.28125 0.875 -0.28125 1.921875l0 5.062502l-1.625 0zm12.853302 -3.109377l1.6875 0.203125q-0.40625 1.484375 -1.484375 2.3125q-1.078125 0.8125019 -2.765625 0.8125019q-2.125 0 -3.375 -1.2968769q-1.234375 -1.3125 -1.234375 -3.671875q0 -2.453125 1.25 -3.796875q1.265625 -1.34375 3.265625 -1.34375q1.9375 0 3.15625 1.328125q1.234375 1.3125 1.234375 3.703125q0 0.15625 0 0.4375l-7.21875 0q0.09375 1.59375 0.90625 2.453125q0.8125 0.84375 2.015625 0.84375q0.90625 0 1.546875 -0.46875q0.640625 -0.484375 1.015625 -1.515625zm-5.390625 -2.65625l5.40625 0q-0.109375 -1.21875 -0.625 -1.828125q-0.78125 -0.953125 -2.03125 -0.953125q-1.125 0 -1.90625 0.765625q-0.765625 0.75 -0.84375 2.015625zm15.453842 4.578125q-0.921875 0.765625 -1.765625 1.0937519q-0.828125 0.3125 -1.796875 0.3125q-1.59375 0 -2.453125 -0.7812519q-0.859375 -0.78125 -0.859375 -1.984375q0 -0.71875 0.328125 -1.296875q0.328125 -0.59375 0.84375 -0.9375q0.53125 -0.359375 1.1875 -0.546875q0.46875 -0.125 1.453125 -0.25q1.984375 -0.234375 2.921875 -0.5625q0.015625 -0.34375 0.015625 -0.421875q0 -1.0 -0.46875 -1.421875q-0.625 -0.546875 -1.875 -0.546875q-1.15625 0 -1.703125 0.40625q-0.546875 0.40625 -0.8125 1.421875l-1.609375 -0.21875q0.21875 -1.015625 0.71875 -1.640625q0.5 -0.640625 1.453125 -0.984375q0.953125 -0.34375 2.1875 -0.34375q1.25 0 2.015625 0.296875q0.78125 0.28125 1.140625 0.734375q0.375 0.4375 0.515625 1.109375q0.078125 0.421875 0.078125 1.515625l0 2.1875q0 2.28125 0.109375 2.890625q0.109375 0.59375 0.40625 1.1562519l-1.703125 0q-0.265625 -0.5156269 -0.328125 -1.1875019zm-0.140625 -3.671875q-0.890625 0.375 -2.671875 0.625q-1.015625 0.140625 -1.4375 0.328125q-0.421875 0.1875 -0.65625 0.53125q-0.21875 0.34375 -0.21875 0.78125q0 0.65625 0.5 1.09375q0.5 0.4375 1.453125 0.4375q0.9375 0 1.671875 -0.40625q0.75 -0.421875 1.09375 -1.140625q0.265625 -0.5625 0.265625 -1.640625l0 -0.609375zm10.469452 4.859377l0 -1.2187519q-0.90625 1.4375019 -2.703125 1.4375019q-1.15625 0 -2.125 -0.6406269q-0.96875 -0.640625 -1.5 -1.78125q-0.53125 -1.140625 -0.53125 -2.625q0 -1.453125 0.484375 -2.625q0.484375 -1.1875 1.4375 -1.8125q0.96875 -0.625 2.171875 -0.625q0.875 0 1.546875 0.375q0.6875 0.359375 1.109375 0.953125l0 -4.796875l1.640625 0l0 13.359377l-1.53125 0zm-5.171875 -4.828127q0 1.859375 0.78125 2.78125q0.78125 0.921875 1.84375 0.921875q1.078125 0 1.828125 -0.875q0.75 -0.890625 0.75 -2.6875q0 -1.984375 -0.765625 -2.90625q-0.765625 -0.9375 -1.890625 -0.9375q-1.078125 0 -1.8125 0.890625q-0.734375 0.890625 -0.734375 2.8125z" fill-rule="nonzero"/><path fill="#000000" fill-opacity="0.0" d="m290.83466 234.94751l-33.606323 -9.007874" fill-rule="evenodd"/><path stroke="#000000" stroke-width="1.0" stroke-linejoin="round" stroke-linecap="butt" d="m290.83466 234.94751l-27.810883 -7.454468" fill-rule="evenodd"/><path fill="#000000" stroke="#000000" stroke-width="1.0" stroke-linecap="butt" d="m263.45142 225.89763l-4.8110046 0.42048645l3.955719 2.77034z" fill-rule="evenodd"/><path fill="#000000" fill-opacity="0.0" d="m290.83466 221.73491l128.59842 0l0 42.015762l-128.59842 0z" fill-rule="evenodd"/><path fill="#000000" d="m302.85028 248.6549l-2.96875 -9.671875l1.703125 0l1.53125 5.578125l0.578125 2.078125q0.046875 -0.15625 0.5 -2.0l1.546875 -5.65625l1.6875 0l1.4375 5.609375l0.484375 1.84375l0.5625 -1.859375l1.65625 -5.59375l1.59375 0l-3.03125 9.671875l-1.703125 0l-1.53125 -5.796875l-0.375 -1.640625l-1.953125 7.4375l-1.71875 0zm11.676056 0l0 -9.671875l1.46875 0l0 1.46875q0.5625 -1.03125 1.03125 -1.359375q0.484375 -0.328125 1.0625 -0.328125q0.828125 0 1.6875 0.53125l-0.5625 1.515625q-0.609375 -0.359375 -1.203125 -0.359375q-0.546875 0 -0.96875 0.328125q-0.421875 0.328125 -0.609375 0.890625q-0.28125 0.875 -0.28125 1.921875l0 5.0625l-1.625 0zm6.228302 -11.46875l0 -1.890625l1.640625 0l0 1.890625l-1.640625 0zm0 11.46875l0 -9.671875l1.640625 0l0 9.671875l-1.640625 0zm7.7229614 -1.46875l0.234375 1.453125q-0.6875 0.140625 -1.234375 0.140625q-0.890625 0 -1.390625 -0.28125q-0.484375 -0.28125 -0.6875 -0.734375q-0.203125 -0.46875 -0.203125 -1.9375l0 -5.578125l-1.203125 0l0 -1.265625l1.203125 0l0 -2.390625l1.625 -0.984375l0 3.375l1.65625 0l0 1.265625l-1.65625 0l0 5.671875q0 0.6875 0.078125 0.890625q0.09375 0.203125 0.28125 0.328125q0.203125 0.109375 0.578125 0.109375q0.265625 0 0.71875 -0.0625zm8.230164 -1.640625l1.6875 0.203125q-0.40625 1.484375 -1.484375 2.3125q-1.078125 0.8125 -2.765625 0.8125q-2.125 0 -3.375 -1.296875q-1.234375 -1.3125 -1.234375 -3.671875q0 -2.453125 1.25 -3.796875q1.265625 -1.34375 3.265625 -1.34375q1.9375 0 3.15625 1.328125q1.234375 1.3125 1.234375 3.703125q0 0.15625 0 0.4375l-7.21875 0q0.09375 1.59375 0.90625 2.453125q0.8125 0.84375 2.015625 0.84375q0.90625 0 1.546875 -0.46875q0.640625 -0.484375 1.015625 -1.515625zm-5.390625 -2.65625l5.40625 0q-0.109375 -1.21875 -0.625 -1.828125q-0.78125 -0.953125 -2.03125 -0.953125q-1.125 0 -1.90625 0.765625q-0.765625 0.75 -0.84375 2.015625z" fill-rule="nonzero"/><path fill="#000000" fill-opacity="0.0" d="m74.18898 167.85564l0 0c0 -30.058197 24.36699 -54.425194 54.425186 -54.425194l0 0c14.4344635 0 28.277725 5.73407 38.484436 15.940773c10.206696 10.206711 15.940765 24.049973 15.940765 38.48442l0 0c0 30.058212 -24.36699 54.4252 -54.4252 54.4252l0 0c-30.058197 0 -54.425186 -24.36699 -54.425186 -54.4252z" fill-rule="evenodd"/><path stroke="#000000" stroke-width="1.0" stroke-linejoin="round" stroke-linecap="butt" d="m74.18898 167.85564l0 0c0 -30.058197 24.36699 -54.425194 54.425186 -54.425194l0 0c14.4344635 0 28.277725 5.73407 38.484436 15.940773c10.206696 10.206711 15.940765 24.049973 15.940765 38.48442l0 0c0 30.058212 -24.36699 54.4252 -54.4252 54.4252l0 0c-30.058197 0 -54.425186 -24.36699 -54.425186 -54.4252z" fill-rule="evenodd"/><path fill="#000000" fill-opacity="0.0" d="m167.0986 129.37122l18.83464 -18.078735" fill-rule="evenodd"/><path stroke="#000000" stroke-width="1.0" stroke-linejoin="round" stroke-linecap="butt" d="m167.0986 129.37122l18.83464 -18.078735" fill-rule="evenodd"/><path fill="#000000" fill-opacity="0.0" d="m183.03937 167.85564l28.850403 0.8189087" fill-rule="evenodd"/><path stroke="#000000" stroke-width="1.0" stroke-linejoin="round" stroke-linecap="butt" d="m183.03937 167.85564l28.850403 0.8189087" fill-rule="evenodd"/><path fill="#000000" fill-opacity="0.0" d="m167.0986 206.34007l18.83464 19.590546" fill-rule="evenodd"/><path stroke="#000000" stroke-width="1.0" stroke-linejoin="round" stroke-linecap="butt" d="m167.0986 206.34007l18.83464 19.590546" fill-rule="evenodd"/><path fill="#000000" fill-opacity="0.0" d="m128.61417 222.28084l0 27.40158" fill-rule="evenodd"/><path stroke="#000000" stroke-width="1.0" stroke-linejoin="round" stroke-linecap="butt" d="m128.61417 222.28084l0 27.40158" fill-rule="evenodd"/><path fill="#000000" fill-opacity="0.0" d="m90.129745 206.34007l-18.83464 19.590546" fill-rule="evenodd"/><path stroke="#000000" stroke-width="1.0" stroke-linejoin="round" stroke-linecap="butt" d="m90.129745 206.34007l-18.83464 19.590546" fill-rule="evenodd"/><path fill="#000000" fill-opacity="0.0" d="m74.18898 167.85564l-24.629925 -0.25196838" fill-rule="evenodd"/><path stroke="#000000" stroke-width="1.0" stroke-linejoin="round" stroke-linecap="butt" d="m74.18898 167.85564l-24.629925 -0.25196838" fill-rule="evenodd"/><path fill="#000000" fill-opacity="0.0" d="m90.129745 129.37122l-18.83464 -18.078735" fill-rule="evenodd"/><path stroke="#000000" stroke-width="1.0" stroke-linejoin="round" stroke-linecap="butt" d="m90.129745 129.37122l-18.83464 -18.078735" fill-rule="evenodd"/><path fill="#000000" fill-opacity="0.0" d="m128.61417 113.43044l0 -25.889763" fill-rule="evenodd"/><path stroke="#000000" stroke-width="1.0" stroke-linejoin="round" stroke-linecap="butt" d="m128.61417 113.43044l0 -25.889763" fill-rule="evenodd"/><path fill="#000000" fill-opacity="0.0" d="m136.42258 83.091866l18.83464 0l0 42.015747l-18.83464 0z" fill-rule="evenodd"/><path fill="#000000" d="m146.65695 110.01186l0 -13.359375l1.640625 0l0 4.796875q1.140625 -1.328125 2.890625 -1.328125q1.078125 0 1.859375 0.421875q0.796875 0.421875 1.140625 1.171875q0.34375 0.75 0.34375 2.171875l0 6.125l-1.640625 0l0 -6.125q0 -1.234375 -0.53125 -1.796875q-0.53125 -0.5625 -1.515625 -0.5625q-0.71875 0 -1.359375 0.390625q-0.640625 0.375 -0.921875 1.015625q-0.265625 0.640625 -0.265625 1.78125l0 5.296875l-1.640625 0z" fill-rule="nonzero"/><path fill="#000000" fill-opacity="0.0" d="m176.42258 123.091866l18.83464 0l0 42.01574l-18.83464 0z" fill-rule="evenodd"/><path fill="#000000" d="m186.65695 138.5431l0 -1.890625l1.640625 0l0 1.890625l-1.640625 0zm0 11.46875l0 -9.671875l1.640625 0l0 9.671875l-1.640625 0z" fill-rule="nonzero"/><path fill="#000000" fill-opacity="0.0" d="m176.42258 171.09186l18.83464 0l0 42.015747l-18.83464 0z" fill-rule="evenodd"/><path fill="#000000" d="m187.07883 198.01186l0 -1.875l1.875 0l0 1.875q0 1.03125 -0.375 1.65625q-0.359375 0.640625 -1.15625 0.984375l-0.453125 -0.703125q0.515625 -0.21875 0.765625 -0.671875q0.25 -0.4375 0.28125 -1.265625l-0.9375 0z" fill-rule="nonzero"/></g></svg>