<svg version="1.1" viewBox="0.0 0.0 300.0 300.0" width="300" height="300" fill="none" stroke="none" stroke-linecap="square" stroke-miterlimit="10" xmlns:xlink="http://www.w3.org/1999/xlink" xmlns="http://www.w3.org/2000/svg"><clipPath id="p.0"><path d="m0 0l960.0 0l0 720.0l-960.0 0l0 -720.0z" clip-rule="nonzero"/></clipPath><g clip-path="url(#p.0)"><path fill="#000000" fill-opacity="0.0" d="m0 0l960.0 0l0 720.0l-960.0 0z" fill-rule="evenodd"/><path fill="#000000" fill-opacity="0.0" d="m0 128.61417l0 0c0 -71.03164 57.582527 -128.61417 128.61417 -128.61417l0 0c34.11061 0 66.82413 13.550383 90.943954 37.67022c24.119843 24.119835 37.67021 56.83335 37.67021 90.94395l0 0c0 71.03165 -57.58252 128.61417 -128.61417 128.61417l0 0c-71.03164 0 -128.61417 -57.58252 -128.61417 -128.61417z" fill-rule="evenodd"/><path stroke="#000000" stroke-width="1.0" stroke-linejoin="round" stroke-linecap="butt" d="m0 128.61417l0 0c0 -71.03164 57.582527 -128.61417 128.61417 -128.61417l0 0c34.11061 0 66.82413 13.550383 90.943954 37.67022c24.119843 24.119835 37.67021 56.83335 37.67021 90.94395l0 0c0 71.03165 -57.58252 128.61417 -128.61417 128.61417l0 0c-71.03164 0 -128.61417 -57.58252 -128.61417 -128.61417z" fill-rule="evenodd"/><path fill="#000000" fill-opacity="0.0" d="m47.54331 128.61417l0 0c0 -44.774193 36.296665 -81.07086 81.07086 -81.07086l0 0c21.501343 0 42.122025 8.54137 57.32576 23.745106c15.203735 15.203735 23.745117 35.824432 23.745117 57.325752l0 0c0 44.774216 -36.29666 81.07088 -81.07088 81.07088l0 0c-44.774193 0 -81.07086 -36.29666 -81.07086 -81.07088z" fill-rule="evenodd"/><path stroke="#000000" stroke-width="1.0" stroke-linejoin="round" stroke-linecap="butt" d="m47.54331 128.61417l0 0c0 -44.774193 36.296665 -81.07086 81.07086 -81.07086l0 0c21.501343 0 42.122025 8.54137 57.32576 23.745106c15.203735 15.203735 23.745117 35.824432 23.745117 57.325752l0 0c0 44.774216 -36.29666 81.07088 -81.07088 81.07088l0 0c-44.774193 0 -81.07086 -36.29666 -81.07086 -81.07088z" fill-rule="evenodd"/><path fill="#000000" fill-opacity="0.0" d="m185.93993 71.288414l33.606308 -33.6063" fill-rule="evenodd"/><path stroke="#000000" stroke-width="1.0" stroke-linejoin="round" stroke-linecap="butt" d="m185.93993 71.288414l33.606308 -33.6063" fill-rule="evenodd"/><path fill="#000000" fill-opacity="0.0" d="m209.68504 128.61417l47.559036 0" fill-rule="evenodd"/><path stroke="#000000" stroke-width="1.0" stroke-linejoin="round" stroke-linecap="butt" d="m209.68504 128.61417l47.559036 0" fill-rule="evenodd"/><path fill="#000000" fill-opacity="0.0" d="m185.93993 185.93993l33.606308 33.606308" fill-rule="evenodd"/><path stroke="#000000" stroke-width="1.0" stroke-linejoin="round" stroke-linecap="butt" d="m185.93993 185.93993l33.606308 33.606308" fill-rule="evenodd"/><path fill="#000000" fill-opacity="0.0" d="m128.61417 209.68504l0 47.559036" fill-rule="evenodd"/><path stroke="#000000" stroke-width="1.0" stroke-linejoin="round" stroke-linecap="butt" d="m128.61417 209.68504l0 47.559036" fill-rule="evenodd"/><path fill="#000000" fill-opacity="0.0" d="m71.288414 185.93993l-33.6063 33.606308" fill-rule="evenodd"/><path stroke="#000000" stroke-width="1.0" stroke-linejoin="round" stroke-linecap="butt" d="m71.288414 185.93993l-33.6063 33.606308" fill-rule="evenodd"/><path fill="#000000" fill-opacity="0.0" d="m47.54331 128.61417l-47.52756 0" fill-rule="evenodd"/><path stroke="#000000" stroke-width="1.0" stroke-linejoin="round" stroke-linecap="butt" d="m47.54331 128.61417l-47.52756 0" fill-rule="evenodd"/><path fill="#000000" fill-opacity="0.0" d="m71.288414 71.288414l-33.6063 -33.6063" fill-rule="evenodd"/><path stroke="#000000" stroke-width="1.0" stroke-linejoin="round" stroke-linecap="butt" d="m71.288414 71.288414l-33.6063 -33.6063" fill-rule="evenodd"/><path fill="#000000" fill-opacity="0.0" d="m128.61417 47.54331l0 -47.52756" fill-rule="evenodd"/><path stroke="#000000" stroke-width="1.0" stroke-linejoin="round" stroke-linecap="butt" d="m128.61417 47.54331l0 -47.52756" fill-rule="evenodd"/><path fill="#000000" fill-opacity="0.0" d="m146.53018 12.650919l33.606308 0l0 42.015747l-33.606308 0z" fill-rule="evenodd"/><path fill="#000000" d="m156.31143 32.977165q0 -2.359373 0.484375 -3.796873q0.484375 -1.453125 1.4375 -2.234375q0.96875 -0.78125 2.421875 -0.78125q1.078125 0 1.890625 0.4375q0.8125 0.421875 1.328125 1.25q0.53125 0.8125 0.828125 1.984375q0.3125 1.15625 0.3125 3.140623q0 2.359375 -0.484375 3.8125q-0.484375 1.4375 -1.453125 2.234375q-0.953125 0.78125 -2.421875 0.78125q-1.921875 0 -3.03125 -1.390625q-1.3125 -1.671875 -1.3125 -5.4375zm1.671875 0q0 3.296875 0.765625 4.390625q0.78125 1.078125 1.90625 1.078125q1.140625 0 1.90625 -1.09375q0.765625 -1.09375 0.765625 -4.375q0 -3.296873 -0.765625 -4.374998q-0.765625 -1.078125 -1.921875 -1.078125q-1.125 0 -1.796875 0.953125q-0.859375 1.21875 -0.859375 4.499998z" fill-rule="nonzero"/><path fill="#000000" fill-opacity="0.0" d="m209.68504 71.28871l33.606293 0l0 42.015747l-33.606293 0z" fill-rule="evenodd"/><path fill="#000000" d="m225.63817 98.20871l-1.640625 0l0 -10.453125q-0.59375 0.5625 -1.5625 1.140625q-0.953125 0.5625 -1.71875 0.84375l0 -1.59375q1.375 -0.640625 2.40625 -1.5625q1.03125 -0.921875 1.453125 -1.78125l1.0625 0l0 13.40625z" fill-rule="nonzero"/><path fill="#000000" fill-opacity="0.0" d="m209.68504 143.92389l33.606293 0l0 42.015747l-33.606293 0z" fill-rule="evenodd"/><path fill="#000000" d="m228.07567 169.26576l0 1.578125l-8.828125 0q-0.015625 -0.59375 0.1875 -1.140625q0.34375 -0.90625 1.078125 -1.78125q0.75 -0.875 2.15625 -2.015625q2.171875 -1.78125 2.9375 -2.828125q0.765625 -1.046875 0.765625 -1.96875q0 -0.984375 -0.703125 -1.640625q-0.6875 -0.671875 -1.8125 -0.671875q-1.1875 0 -1.90625 0.71875q-0.703125 0.703125 -0.703125 1.953125l-1.6875 -0.171875q0.171875 -1.890625 1.296875 -2.875q1.140625 -0.984375 3.03125 -0.984375q1.921875 0 3.046875 1.0625q1.125 1.0625 1.125 2.640625q0 0.796875 -0.328125 1.578125q-0.328125 0.78125 -1.09375 1.640625q-0.75 0.84375 -2.53125 2.34375q-1.46875 1.234375 -1.890625 1.6875q-0.421875 0.4375 -0.6875 0.875l6.546875 0z" fill-rule="nonzero"/><path fill="#000000" fill-opacity="0.0" d="m146.53018 209.68504l33.606308 0l0 42.015747l-33.606308 0z" fill-rule="evenodd"/><path fill="#000000" d="m156.31143 233.07379l1.640625 -0.21875q0.28125 1.40625 0.953125 2.015625q0.6875 0.609375 1.65625 0.609375q1.15625 0 1.953125 -0.796875q0.796875 -0.796875 0.796875 -1.984375q0 -1.125 -0.734375 -1.859375q-0.734375 -0.734375 -1.875 -0.734375q-0.46875 0 -1.15625 0.171875l0.1875 -1.4375q0.15625 0.015625 0.265625 0.015625q1.046875 0 1.875 -0.546875q0.84375 -0.546875 0.84375 -1.671875q0 -0.90625 -0.609375 -1.5q-0.609375 -0.59375 -1.578125 -0.59375q-0.953125 0 -1.59375 0.609375q-0.640625 0.59375 -0.8125 1.796875l-1.640625 -0.296875q0.296875 -1.640625 1.359375 -2.546875q1.0625 -0.90625 2.65625 -0.90625q1.09375 0 2.0 0.46875q0.921875 0.46875 1.40625 1.28125q0.5 0.8125 0.5 1.71875q0 0.859375 -0.46875 1.578125q-0.46875 0.703125 -1.375 1.125q1.1875 0.28125 1.84375 1.140625q0.65625 0.859375 0.65625 2.15625q0 1.734375 -1.28125 2.953125q-1.265625 1.21875 -3.21875 1.21875q-1.765625 0 -2.921875 -1.046875q-1.15625 -1.046875 -1.328125 -2.71875z" fill-rule="nonzero"/><path fill="#000000" fill-opacity="0.0" d="m65.055115 201.04462l33.6063 0l0 42.015747l-33.6063 0z" fill-rule="evenodd"/><path fill="#000000" d="m80.086365 227.96461l0 -3.203125l-5.796875 0l0 -1.5l6.09375 -8.65625l1.34375 0l0 8.65625l1.796875 0l0 1.5l-1.796875 0l0 3.203125l-1.640625 0zm0 -4.703125l0 -6.015625l-4.1875 6.015625l4.1875 0z" fill-rule="nonzero"/><path fill="#000000" fill-opacity="0.0" d="m13.937008 143.92389l33.6063 0l0 42.015747l-33.6063 0z" fill-rule="evenodd"/><path fill="#000000" d="m23.718258 167.34389l1.71875 -0.140625q0.1875 1.25 0.875 1.890625q0.703125 0.625 1.6875 0.625q1.1875 0 2.0 -0.890625q0.828125 -0.890625 0.828125 -2.359375q0 -1.40625 -0.796875 -2.21875q-0.78125 -0.8125 -2.0625 -0.8125q-0.78125 0 -1.421875 0.359375q-0.640625 0.359375 -1.0 0.9375l-1.546875 -0.203125l1.296875 -6.859375l6.640625 0l0 1.5625l-5.328125 0l-0.71875 3.59375q1.203125 -0.84375 2.515625 -0.84375q1.75 0 2.953125 1.21875q1.203125 1.203125 1.203125 3.109375q0 1.8125 -1.046875 3.140625q-1.296875 1.625 -3.515625 1.625q-1.8125 0 -2.96875 -1.015625q-1.15625 -1.03125 -1.3125 -2.71875z" fill-rule="nonzero"/><path fill="#000000" fill-opacity="0.0" d="m13.937008 71.28871l33.6063 0l0 42.015747l-33.6063 0z" fill-rule="evenodd"/><path fill="#000000" d="m32.218258 88.130585l-1.625 0.125q-0.21875 -0.96875 -0.625 -1.40625q-0.65625 -0.703125 -1.640625 -0.703125q-0.78125 0 -1.375 0.4375q-0.765625 0.5625 -1.21875 1.65625q-0.453125 1.078125 -0.46875 3.078125q0.59375 -0.890625 1.453125 -1.328125q0.859375 -0.4375 1.796875 -0.4375q1.640625 0 2.78125 1.203125q1.15625 1.203125 1.15625 3.109375q0 1.265625 -0.546875 2.34375q-0.53125 1.078125 -1.484375 1.65625q-0.9375 0.578125 -2.140625 0.578125q-2.0625 0 -3.359375 -1.5q-1.28125 -1.515625 -1.28125 -4.984375q0 -3.875 1.421875 -5.625q1.25 -1.53125 3.375 -1.53125q1.5625 0 2.5625 0.890625q1.015625 0.875 1.21875 2.4375zm-6.6875 5.75q0 0.84375 0.359375 1.625q0.359375 0.765625 1.0 1.171875q0.640625 0.40625 1.359375 0.40625q1.03125 0 1.78125 -0.828125q0.75 -0.84375 0.75 -2.28125q0 -1.390625 -0.734375 -2.1875q-0.734375 -0.796875 -1.859375 -0.796875q-1.109375 0 -1.890625 0.796875q-0.765625 0.796875 -0.765625 2.09375z" fill-rule="nonzero"/><path fill="#000000" fill-opacity="0.0" d="m71.28871 12.650919l33.6063 0l0 42.015747l-33.6063 0z" fill-rule="evenodd"/><path fill="#000000" d="m81.17934 27.961542l0 -1.578125l8.640625 0l0 1.28125q-1.28125 1.359375 -2.53125 3.609375q-1.25 2.249998 -1.9375 4.624998q-0.484375 1.671875 -0.625 3.671875l-1.6875 0q0.03125 -1.578125 0.625 -3.8125q0.59375 -2.234375 1.6875 -4.296873q1.109375 -2.078125 2.359375 -3.5l-6.53125 0z" fill-rule="nonzero"/></g></svg>