<svg version="1.1" viewBox="0.0 0.0 600.0 371.0" fill="none" stroke="none" stroke-linecap="square" stroke-miterlimit="10" width="600" height="371" xmlns:xlink="http://www.w3.org/1999/xlink" xmlns="http://www.w3.org/2000/svg"><path fill="#ffffff" d="M0 0L600.0 0L600.0 371.0L0 371.0L0 0Z" fill-rule="nonzero"/><path stroke="#333333" stroke-width="1.0" stroke-linecap="butt" d="M77.5 300.5L581.5 300.5" fill-rule="nonzero"/><path stroke="#cccccc" stroke-width="1.0" stroke-linecap="butt" d="M77.5 252.5L581.5 252.5" fill-rule="nonzero"/><path stroke="#cccccc" stroke-width="1.0" stroke-linecap="butt" d="M77.5 205.5L581.5 205.5" fill-rule="nonzero"/><path stroke="#cccccc" stroke-width="1.0" stroke-linecap="butt" d="M77.5 157.5L581.5 157.5" fill-rule="nonzero"/><path stroke="#cccccc" stroke-width="1.0" stroke-linecap="butt" d="M77.5 109.5L581.5 109.5" fill-rule="nonzero"/><path stroke="#cccccc" stroke-width="1.0" stroke-linecap="butt" d="M77.5 61.5L581.5 61.5" fill-rule="nonzero"/><clipPath id="id_0"><path d="M77.55 61.916668L581.45 61.916668L581.45 300.45L77.55 300.45L77.55 61.916668Z" clip-rule="nonzero"/></clipPath><path stroke="#4285f4" stroke-width="2.0" stroke-linecap="butt" clip-path="url(#id_0)" d="M127.94 181.18333L228.72 61.916668L329.5 109.62334L430.28 85.77L531.06 133.47667" fill-rule="nonzero"/><path fill="#000000" fill-opacity="0.0" clip-path="url(#id_0)" d="M130.94 181.18333C130.94 182.8402 129.59685 184.18333 127.94 184.18333C126.28314 184.18333 124.94 182.8402 124.94 181.18333C124.94 179.52647 126.28314 178.18333 127.94 178.18333C129.59685 178.18333 130.94 179.52647 130.94 181.18333Z" fill-rule="nonzero"/><path fill="#000000" fill-opacity="0.0" clip-path="url(#id_0)" d="M231.72 61.916668C231.72 63.57352 230.37686 64.916664 228.72 64.916664C227.06314 64.916664 225.72 63.57352 225.72 61.916668C225.72 60.25981 227.06314 58.916668 228.72 58.916668C230.37686 58.916668 231.72 60.25981 231.72 61.916668Z" fill-rule="nonzero"/><path fill="#000000" fill-opacity="0.0" clip-path="url(#id_0)" d="M332.5 109.62334C332.5 111.28019 331.15686 112.62334 329.5 112.62334C327.84314 112.62334 326.5 111.28019 326.5 109.62334C326.5 107.96648 327.84314 106.62334 329.5 106.62334C331.15686 106.62334 332.5 107.96648 332.5 109.62334Z" fill-rule="nonzero"/><path fill="#000000" fill-opacity="0.0" clip-path="url(#id_0)" d="M433.28 85.77C433.28 87.42686 431.93686 88.77 430.28 88.77C428.62314 88.77 427.28 87.42686 427.28 85.77C427.28 84.113144 428.62314 82.77 430.28 82.77C431.93686 82.77 433.28 84.113144 433.28 85.77Z" fill-rule="nonzero"/><path fill="#000000" fill-opacity="0.0" clip-path="url(#id_0)" d="M534.06 133.47667C534.06 135.13351 532.71686 136.47667 531.06 136.47667C529.40314 136.47667 528.06 135.13351 528.06 133.47667C528.06 131.81981 529.40314 130.47667 531.06 130.47667C532.71686 130.47667 534.06 131.81981 534.06 133.47667Z" fill-rule="nonzero"/><path fill="#000000" d="M318.60938 349.45L318.60938 341.8719L315.78125 341.8719L315.78125 340.85626L322.59375 340.85626L322.59375 341.8719L319.75 341.8719L319.75 349.45L318.60938 349.45ZM323.29688 342.075L323.29688 340.85626L324.35938 340.85626L324.35938 342.075L323.29688 342.075ZM323.29688 349.45L323.29688 343.23126L324.35938 343.23126L324.35938 349.45L323.29688 349.45ZM326.29688 349.45L326.29688 343.23126L327.23438 343.23126L327.23438 344.10626Q327.53125 343.6375 328.01562 343.3719Q328.5 343.09064 329.125 343.09064Q329.8125 343.09064 330.25 343.3719Q330.70312 343.65314 330.875 344.16876Q331.625 343.09064 332.79688 343.09064Q333.73438 343.09064 334.21875 343.60626Q334.71875 344.10626 334.71875 345.1844L334.71875 349.45L333.67188 349.45L333.67188 345.52814Q333.67188 344.90314 333.5625 344.6219Q333.46875 344.34064 333.20312 344.16876Q332.9375 343.9969 332.5625 343.9969Q331.90625 343.9969 331.46875 344.4344Q331.04688 344.8719 331.04688 345.84064L331.04688 349.45L329.98438 349.45L329.98438 345.40314Q329.98438 344.7 329.71875 344.35626Q329.46875 343.9969 328.89062 343.9969Q328.4375 343.9969 328.0625 344.23126Q327.6875 344.46564 327.51562 344.91876Q327.34375 345.3719 327.34375 346.21564L327.34375 349.45L326.29688 349.45ZM341.54688 347.45L342.64062 347.575Q342.39062 348.52814 341.6875 349.0594Q340.98438 349.59064 339.90625 349.59064Q338.54688 349.59064 337.73438 348.7469Q336.9375 347.90314 336.9375 346.3875Q336.9375 344.825 337.75 343.96564Q338.5625 343.09064 339.84375 343.09064Q341.09375 343.09064 341.875 343.9344Q342.67188 344.77814 342.67188 346.325Q342.67188 346.41876 342.67188 346.60626L338.03125 346.60626Q338.09375 347.6375 338.60938 348.1844Q339.125 348.71564 339.90625 348.71564Q340.48438 348.71564 340.89062 348.41876Q341.3125 348.10626 341.54688 347.45ZM338.09375 345.7469L341.5625 345.7469Q341.5 344.95 341.17188 344.5594Q340.65625 343.95 339.85938 343.95Q339.125 343.95 338.625 344.4344Q338.14062 344.91876 338.09375 345.7469Z" fill-rule="nonzero"/><path fill="#000000" d="M29.550013 199.80833L20.956263 203.13646L20.956263 201.90208L27.206263 199.66771Q27.956263 199.40208 28.612513 199.21458Q27.909388 199.01146 27.206263 198.74583L20.956263 196.43333L20.956263 195.27708L29.550013 198.63646L29.550013 199.80833ZM28.784388 191.32396Q29.284388 191.91771 29.487513 192.46458Q29.690638 192.99583 29.690638 193.62083Q29.690638 194.65208 29.190638 195.19896Q28.690638 195.74583 27.909388 195.74583Q27.456263 195.74583 27.081263 195.54271Q26.690638 195.33958 26.471888 194.99583Q26.237513 194.65208 26.128138 194.23021Q26.034388 193.93333 25.956263 193.29271Q25.815638 192.02708 25.596888 191.41771Q25.378138 191.41771 25.331263 191.41771Q24.675013 191.41771 24.409388 191.71458Q24.065638 192.12083 24.065638 192.91771Q24.065638 193.65208 24.331263 194.01146Q24.581263 194.37083 25.237513 194.54271L25.096888 195.57396Q24.440638 195.43333 24.034388 195.10521Q23.628138 194.77708 23.409388 194.16771Q23.190638 193.55833 23.190638 192.76146Q23.190638 191.96458 23.378138 191.46458Q23.565638 190.96458 23.846888 190.73021Q24.128138 190.49583 24.565638 190.40208Q24.831263 190.35521 25.534388 190.35521L26.940638 190.35521Q28.409388 190.35521 28.800013 190.29271Q29.190638 190.21458 29.550013 190.01146L29.550013 191.12083Q29.221888 191.27708 28.784388 191.32396ZM26.425013 191.41771Q26.659388 191.99583 26.831263 193.13646Q26.925013 193.79271 27.050013 194.05833Q27.159388 194.32396 27.378138 194.48021Q27.596888 194.62083 27.878138 194.62083Q28.300013 194.62083 28.581263 194.30833Q28.862513 193.98021 28.862513 193.37083Q28.862513 192.76146 28.596888 192.29271Q28.331263 191.80833 27.862513 191.58958Q27.503138 191.41771 26.815638 191.41771L26.425013 191.41771ZM29.550013 188.41771L20.956263 188.41771L20.956263 187.35521L29.550013 187.35521L29.550013 188.41771ZM29.550013 181.30833L28.628138 181.30833Q29.690638 182.04271 29.690638 183.29271Q29.690638 183.83958 29.487513 184.32396Q29.268763 184.79271 28.956263 185.02708Q28.628138 185.26146 28.159388 185.35521Q27.862513 185.41771 27.175013 185.41771L23.331263 185.41771L23.331263 184.35521L26.784388 184.35521Q27.596888 184.35521 27.893763 184.29271Q28.300013 184.19896 28.550013 183.88646Q28.784388 183.55833 28.784388 183.07396Q28.784388 182.60521 28.550013 182.19896Q28.300013 181.77708 27.878138 181.60521Q27.456263 181.41771 26.659388 181.41771L23.331263 181.41771L23.331263 180.37083L29.550013 180.37083L29.550013 181.30833ZM27.550013 174.13646L27.675013 173.04271Q28.628138 173.29271 29.159388 173.99583Q29.690638 174.69896 29.690638 175.77708Q29.690638 177.13646 28.846888 177.94896Q28.003138 178.74583 26.487513 178.74583Q24.925013 178.74583 24.065638 177.93333Q23.190638 177.12083 23.190638 175.83958Q23.190638 174.58958 24.034388 173.80833Q24.878138 173.01146 26.425013 173.01146Q26.518763 173.01146 26.706263 173.01146L26.706263 177.65208Q27.737513 177.58958 28.284388 177.07396Q28.815638 176.55833 28.815638 175.77708Q28.815638 175.19896 28.518763 174.79271Q28.206263 174.37083 27.550013 174.13646ZM25.846888 177.58958L25.846888 174.12083Q25.050013 174.18333 24.659388 174.51146Q24.050013 175.02708 24.050013 175.82396Q24.050013 176.55833 24.534388 177.05833Q25.018763 177.54271 25.846888 177.58958Z" fill-rule="nonzero"/><path fill="#000000" d="M65.05 300.21564Q65.05 298.6844 65.3625 297.7625Q65.675 296.825 66.28438 296.325Q66.90938 295.825 67.84688 295.825Q68.53438 295.825 69.05 296.10626Q69.58125 296.3875 69.925 296.91876Q70.26875 297.4344 70.45625 298.1844Q70.64375 298.9344 70.64375 300.21564Q70.64375 301.73126 70.33125 302.65314Q70.03438 303.575 69.40938 304.09064Q68.8 304.59064 67.84688 304.59064Q66.6125 304.59064 65.89375 303.7Q65.05 302.6375 65.05 300.21564ZM66.12813 300.21564Q66.12813 302.325 66.62813 303.02814Q67.12813 303.73126 67.84688 303.73126Q68.58125 303.73126 69.06563 303.02814Q69.56563 302.325 69.56563 300.21564Q69.56563 298.09064 69.06563 297.40314Q68.58125 296.7 67.83125 296.7Q67.1125 296.7 66.675 297.3094Q66.12813 298.09064 66.12813 300.21564Z" fill-rule="nonzero"/><path fill="#000000" d="M70.59688 255.72772L70.59688 256.74335L64.90938 256.74335Q64.90938 256.36835 65.03438 256.00897Q65.25313 255.43085 65.72188 254.86835Q66.20625 254.30585 67.1125 253.57147Q68.51875 252.41522 69.00313 251.74335Q69.50313 251.07147 69.50313 250.47772Q69.50313 249.85272 69.05 249.43085Q68.59688 248.99335 67.87813 248.99335Q67.1125 248.99335 66.65938 249.44647Q66.20625 249.8996 66.19063 250.7121L65.1125 250.60272Q65.22188 249.38397 65.94063 248.75897Q66.675 248.11835 67.90938 248.11835Q69.14375 248.11835 69.8625 248.80585Q70.58125 249.49335 70.58125 250.50897Q70.58125 251.0246 70.3625 251.5246Q70.15938 252.00897 69.65938 252.57147Q69.175 253.11835 68.05 254.07147Q67.09688 254.86835 66.81563 255.16522Q66.55 255.44647 66.37813 255.72772L70.59688 255.72772Z" fill-rule="nonzero"/><path fill="#000000" d="M68.425 209.03667L68.425 206.97417L64.70625 206.97417L64.70625 206.00542L68.62813 200.44292L69.4875 200.44292L69.4875 206.00542L70.64375 206.00542L70.64375 206.97417L69.4875 206.97417L69.4875 209.03667L68.425 209.03667ZM68.425 206.00542L68.425 202.14604L65.7375 206.00542L68.425 206.00542Z" fill-rule="nonzero"/><path fill="#000000" d="M70.51875 154.84563L69.47188 154.92375Q69.33125 154.29875 69.08125 154.0175Q68.64375 153.56438 68.01875 153.56438Q67.51875 153.56438 67.12813 153.84563Q66.64375 154.22063 66.34688 154.92375Q66.06563 155.61125 66.05 156.8925Q66.425 156.31438 66.97188 156.03313Q67.53438 155.75188 68.14375 155.75188Q69.19063 155.75188 69.925 156.53313Q70.675 157.31438 70.675 158.53313Q70.675 159.34563 70.31563 160.04875Q69.97188 160.73625 69.3625 161.11125Q68.75313 161.47063 67.9875 161.47063Q66.65938 161.47063 65.83125 160.50188Q65.00313 159.53313 65.00313 157.31438Q65.00313 154.81438 65.925 153.68938Q66.72188 152.705 68.08125 152.705Q69.09688 152.705 69.7375 153.28313Q70.39375 153.84563 70.51875 154.84563ZM66.22188 158.54875Q66.22188 159.09563 66.44063 159.59563Q66.675 160.08 67.08125 160.34563Q67.50313 160.61125 67.97188 160.61125Q68.62813 160.61125 69.1125 160.08Q69.59688 159.53313 69.59688 158.61125Q69.59688 157.72063 69.1125 157.205Q68.64375 156.68938 67.925 156.68938Q67.20625 156.68938 66.70625 157.205Q66.22188 157.72063 66.22188 158.54875Z" fill-rule="nonzero"/><path fill="#000000" d="M66.675 108.96709Q66.01875 108.71709 65.69063 108.27959Q65.37813 107.82646 65.37813 107.21709Q65.37813 106.27959 66.05 105.63896Q66.7375 104.99834 67.84688 104.99834Q68.97188 104.99834 69.65938 105.65459Q70.34688 106.31084 70.34688 107.24834Q70.34688 107.84209 70.03438 108.27959Q69.72188 108.71709 69.08125 108.96709Q69.87813 109.21709 70.28438 109.79521Q70.69063 110.37334 70.69063 111.17021Q70.69063 112.26396 69.90938 113.01396Q69.14375 113.76396 67.8625 113.76396Q66.59688 113.76396 65.81563 113.01396Q65.03438 112.26396 65.03438 111.13896Q65.03438 110.29521 65.45625 109.73271Q65.89375 109.17021 66.675 108.96709ZM66.45625 107.17021Q66.45625 107.77959 66.84688 108.17021Q67.25313 108.56084 67.87813 108.56084Q68.4875 108.56084 68.87813 108.18584Q69.26875 107.79521 69.26875 107.23271Q69.26875 106.65459 68.8625 106.26396Q68.45625 105.85771 67.8625 105.85771Q67.25313 105.85771 66.84688 106.24834Q66.45625 106.63896 66.45625 107.17021ZM66.12813 111.13896Q66.12813 111.59209 66.33125 112.01396Q66.55 112.43584 66.97188 112.67021Q67.39375 112.90459 67.87813 112.90459Q68.62813 112.90459 69.1125 112.42021Q69.6125 111.93584 69.6125 111.18584Q69.6125 110.42021 69.1125 109.92021Q68.6125 109.42021 67.84688 109.42021Q67.09688 109.42021 66.6125 109.92021Q66.12813 110.40459 66.12813 111.13896Z" fill-rule="nonzero"/><path fill="#000000" d="M62.01875 65.916664L60.971874 65.916664L60.971874 59.197914Q60.58125 59.55729 59.95625 59.93229Q59.346874 60.291664 58.8625 60.46354L58.8625 59.447914Q59.7375 59.02604 60.39375 58.447914Q61.065624 57.854164 61.346874 57.291664L62.01875 57.291664L62.01875 65.916664ZM65.05 61.68229Q65.05 60.15104 65.3625 59.229164Q65.675 58.291664 66.28438 57.791664Q66.90938 57.291664 67.84688 57.291664Q68.53438 57.291664 69.05 57.572914Q69.58125 57.854164 69.925 58.385414Q70.26875 58.90104 70.45625 59.65104Q70.64375 60.40104 70.64375 61.68229Q70.64375 63.197914 70.33125 64.11979Q70.03438 65.041664 69.40938 65.55729Q68.8 66.05729 67.84688 66.05729Q66.6125 66.05729 65.89375 65.166664Q65.05 64.104164 65.05 61.68229ZM66.12813 61.68229Q66.12813 63.791664 66.62813 64.49479Q67.12813 65.197914 67.84688 65.197914Q68.58125 65.197914 69.06563 64.49479Q69.56563 63.791664 69.56563 61.68229Q69.56563 59.55729 69.06563 58.86979Q68.58125 58.166664 67.83125 58.166664Q67.1125 58.166664 66.675 58.77604Q66.12813 59.55729 66.12813 61.68229Z" fill-rule="nonzero"/><path fill="#000000" d="M116.90875 317.45L115.86188 317.45L115.86188 310.73126Q115.47125 311.09064 114.84625 311.46564Q114.23688 311.825 113.7525 311.9969L113.7525 310.98126Q114.6275 310.5594 115.28375 309.98126Q115.95563 309.3875 116.23688 308.825L116.90875 308.825L116.90875 317.45ZM125.48688 316.4344L125.48688 317.45L119.79938 317.45Q119.79938 317.075 119.92438 316.71564Q120.14313 316.1375 120.61188 315.575Q121.09625 315.0125 122.0025 314.27814Q123.40875 313.1219 123.89313 312.45Q124.39313 311.77814 124.39313 311.1844Q124.39313 310.5594 123.94 310.1375Q123.48688 309.7 122.76813 309.7Q122.0025 309.7 121.54938 310.15314Q121.09625 310.60626 121.08063 311.41876L120.0025 311.3094Q120.11188 310.09064 120.83063 309.46564Q121.565 308.825 122.79938 308.825Q124.03375 308.825 124.7525 309.5125Q125.47125 310.2 125.47125 311.21564Q125.47125 311.73126 125.2525 312.23126Q125.04938 312.71564 124.54938 313.27814Q124.065 313.825 122.94 314.77814Q121.98688 315.575 121.70563 315.8719Q121.44 316.15314 121.26813 316.4344L125.48688 316.4344ZM127.51813 312.4344L127.51813 311.23126L128.72125 311.23126L128.72125 312.4344L127.51813 312.4344ZM127.51813 317.45L127.51813 316.2469L128.72125 316.2469L128.72125 317.45L127.51813 317.45ZM129.94 313.21564Q129.94 311.6844 130.2525 310.7625Q130.565 309.825 131.17438 309.325Q131.79938 308.825 132.73688 308.825Q133.42438 308.825 133.94 309.10626Q134.47125 309.3875 134.815 309.91876Q135.15875 310.4344 135.34625 311.1844Q135.53375 311.9344 135.53375 313.21564Q135.53375 314.73126 135.22125 315.65314Q134.92438 316.575 134.29938 317.09064Q133.69 317.59064 132.73688 317.59064Q131.5025 317.59064 130.78375 316.7Q129.94 315.6375 129.94 313.21564ZM131.01813 313.21564Q131.01813 315.325 131.51813 316.02814Q132.01813 316.73126 132.73688 316.73126Q133.47125 316.73126 133.95563 316.02814Q134.45563 315.325 134.45563 313.21564Q134.45563 311.09064 133.95563 310.40314Q133.47125 309.7 132.72125 309.7Q132.0025 309.7 131.565 310.3094Q131.01813 311.09064 131.01813 313.21564ZM136.94 313.21564Q136.94 311.6844 137.2525 310.7625Q137.565 309.825 138.17438 309.325Q138.79938 308.825 139.73688 308.825Q140.42438 308.825 140.94 309.10626Q141.47125 309.3875 141.815 309.91876Q142.15875 310.4344 142.34625 311.1844Q142.53375 311.9344 142.53375 313.21564Q142.53375 314.73126 142.22125 315.65314Q141.92438 316.575 141.29938 317.09064Q140.69 317.59064 139.73688 317.59064Q138.5025 317.59064 137.78375 316.7Q136.94 315.6375 136.94 313.21564ZM138.01813 313.21564Q138.01813 315.325 138.51813 316.02814Q139.01813 316.73126 139.73688 316.73126Q140.47125 316.73126 140.95563 316.02814Q141.45563 315.325 141.45563 313.21564Q141.45563 311.09064 140.95563 310.40314Q140.47125 309.7 139.72125 309.7Q139.0025 309.7 138.565 310.3094Q138.01813 311.09064 138.01813 313.21564Z" fill-rule="nonzero"/><path fill="#000000" d="M217.68875 317.45L216.64188 317.45L216.64188 310.73126Q216.25125 311.09064 215.62625 311.46564Q215.01688 311.825 214.5325 311.9969L214.5325 310.98126Q215.4075 310.5594 216.06375 309.98126Q216.73563 309.3875 217.01688 308.825L217.68875 308.825L217.68875 317.45ZM226.26688 316.4344L226.26688 317.45L220.57938 317.45Q220.57938 317.075 220.70438 316.71564Q220.92313 316.1375 221.39188 315.575Q221.87625 315.0125 222.7825 314.27814Q224.18875 313.1219 224.67313 312.45Q225.17313 311.77814 225.17313 311.1844Q225.17313 310.5594 224.72 310.1375Q224.26688 309.7 223.54813 309.7Q222.7825 309.7 222.32938 310.15314Q221.87625 310.60626 221.86063 311.41876L220.7825 311.3094Q220.89188 310.09064 221.61063 309.46564Q222.345 308.825 223.57938 308.825Q224.81375 308.825 225.5325 309.5125Q226.25125 310.2 226.25125 311.21564Q226.25125 311.73126 226.0325 312.23126Q225.82938 312.71564 225.32938 313.27814Q224.845 313.825 223.72 314.77814Q222.76688 315.575 222.48563 315.8719Q222.22 316.15314 222.04813 316.4344L226.26688 316.4344ZM228.29813 312.4344L228.29813 311.23126L229.50125 311.23126L229.50125 312.4344L228.29813 312.4344ZM228.29813 317.45L228.29813 316.2469L229.50125 316.2469L229.50125 317.45L228.29813 317.45ZM234.68875 317.45L233.64188 317.45L233.64188 310.73126Q233.25125 311.09064 232.62625 311.46564Q232.01688 311.825 231.5325 311.9969L231.5325 310.98126Q232.4075 310.5594 233.06375 309.98126Q233.73563 309.3875 234.01688 308.825L234.68875 308.825L234.68875 317.45ZM237.72 315.2L238.82938 315.10626Q238.95438 315.91876 239.39188 316.325Q239.845 316.73126 240.48563 316.73126Q241.23563 316.73126 241.76688 316.15314Q242.29813 315.575 242.29813 314.6375Q242.29813 313.73126 241.7825 313.21564Q241.2825 312.6844 240.45438 312.6844Q239.95438 312.6844 239.5325 312.91876Q239.12625 313.15314 238.89188 313.5125L237.9075 313.3875L238.73563 308.98126L243.01688 308.98126L243.01688 309.98126L239.57938 309.98126L239.12625 312.29376Q239.89188 311.7469 240.73563 311.7469Q241.86063 311.7469 242.62625 312.52814Q243.4075 313.3094 243.4075 314.54376Q243.4075 315.7 242.73563 316.5594Q241.9075 317.59064 240.48563 317.59064Q239.31375 317.59064 238.56375 316.9344Q237.82938 316.27814 237.72 315.2Z" fill-rule="nonzero"/><path fill="#000000" d="M318.46875 317.45L317.42188 317.45L317.42188 310.73126Q317.03125 311.09064 316.40625 311.46564Q315.79688 311.825 315.3125 311.9969L315.3125 310.98126Q316.1875 310.5594 316.84375 309.98126Q317.51562 309.3875 317.79688 308.825L318.46875 308.825L318.46875 317.45ZM327.04688 316.4344L327.04688 317.45L321.35938 317.45Q321.35938 317.075 321.48438 316.71564Q321.70312 316.1375 322.17188 315.575Q322.65625 315.0125 323.5625 314.27814Q324.96875 313.1219 325.45312 312.45Q325.95312 311.77814 325.95312 311.1844Q325.95312 310.5594 325.5 310.1375Q325.04688 309.7 324.32812 309.7Q323.5625 309.7 323.10938 310.15314Q322.65625 310.60626 322.64062 311.41876L321.5625 311.3094Q321.67188 310.09064 322.39062 309.46564Q323.125 308.825 324.35938 308.825Q325.59375 308.825 326.3125 309.5125Q327.03125 310.2 327.03125 311.21564Q327.03125 311.73126 326.8125 312.23126Q326.60938 312.71564 326.10938 313.27814Q325.625 313.825 324.5 314.77814Q323.54688 315.575 323.26562 315.8719Q323.0 316.15314 322.82812 316.4344L327.04688 316.4344ZM329.07812 312.4344L329.07812 311.23126L330.28125 311.23126L330.28125 312.4344L329.07812 312.4344ZM329.07812 317.45L329.07812 316.2469L330.28125 316.2469L330.28125 317.45L329.07812 317.45ZM331.5 315.1844L332.5625 315.04376Q332.73438 315.9344 333.17188 316.34064Q333.60938 316.73126 334.23438 316.73126Q334.98438 316.73126 335.5 316.21564Q336.01562 315.7 336.01562 314.9344Q336.01562 314.21564 335.53125 313.7469Q335.0625 313.2625 334.32812 313.2625Q334.03125 313.2625 333.57812 313.3875L333.70312 312.45Q333.8125 312.46564 333.875 312.46564Q334.54688 312.46564 335.07812 312.1219Q335.625 311.7625 335.625 311.02814Q335.625 310.45 335.23438 310.075Q334.84375 309.6844 334.21875 309.6844Q333.60938 309.6844 333.1875 310.075Q332.78125 310.46564 332.67188 311.23126L331.60938 311.04376Q331.79688 309.9969 332.48438 309.41876Q333.17188 308.825 334.1875 308.825Q334.89062 308.825 335.48438 309.1375Q336.07812 309.4344 336.39062 309.95Q336.70312 310.46564 336.70312 311.0594Q336.70312 311.60626 336.40625 312.075Q336.10938 312.52814 335.53125 312.79376Q336.28125 312.96564 336.70312 313.52814Q337.125 314.075 337.125 314.91876Q337.125 316.04376 336.29688 316.825Q335.48438 317.60626 334.23438 317.60626Q333.10938 317.60626 332.35938 316.9344Q331.60938 316.2469 331.5 315.1844ZM338.5 313.21564Q338.5 311.6844 338.8125 310.7625Q339.125 309.825 339.73438 309.325Q340.35938 308.825 341.29688 308.825Q341.98438 308.825 342.5 309.10626Q343.03125 309.3875 343.375 309.91876Q343.71875 310.4344 343.90625 311.1844Q344.09375 311.9344 344.09375 313.21564Q344.09375 314.73126 343.78125 315.65314Q343.48438 316.575 342.85938 317.09064Q342.25 317.59064 341.29688 317.59064Q340.0625 317.59064 339.34375 316.7Q338.5 315.6375 338.5 313.21564ZM339.57812 313.21564Q339.57812 315.325 340.07812 316.02814Q340.57812 316.73126 341.29688 316.73126Q342.03125 316.73126 342.51562 316.02814Q343.01562 315.325 343.01562 313.21564Q343.01562 311.09064 342.51562 310.40314Q342.03125 309.7 341.28125 309.7Q340.5625 309.7 340.125 310.3094Q339.57812 311.09064 339.57812 313.21564Z" fill-rule="nonzero"/><path fill="#000000" d="M419.24875 317.45L418.20187 317.45L418.20187 310.73126Q417.81125 311.09064 417.18625 311.46564Q416.57687 311.825 416.0925 311.9969L416.0925 310.98126Q416.9675 310.5594 417.62375 309.98126Q418.29562 309.3875 418.57687 308.825L419.24875 308.825L419.24875 317.45ZM427.82687 316.4344L427.82687 317.45L422.13937 317.45Q422.13937 317.075 422.26437 316.71564Q422.48312 316.1375 422.95187 315.575Q423.43625 315.0125 424.3425 314.27814Q425.74875 313.1219 426.23312 312.45Q426.73312 311.77814 426.73312 311.1844Q426.73312 310.5594 426.28 310.1375Q425.82687 309.7 425.10812 309.7Q424.3425 309.7 423.88937 310.15314Q423.43625 310.60626 423.42062 311.41876L422.3425 311.3094Q422.45187 310.09064 423.17062 309.46564Q423.905 308.825 425.13937 308.825Q426.37375 308.825 427.0925 309.5125Q427.81125 310.2 427.81125 311.21564Q427.81125 311.73126 427.5925 312.23126Q427.38937 312.71564 426.88937 313.27814Q426.405 313.825 425.28 314.77814Q424.32687 315.575 424.04562 315.8719Q423.78 316.15314 423.60812 316.4344L427.82687 316.4344ZM429.85812 312.4344L429.85812 311.23126L431.06125 311.23126L431.06125 312.4344L429.85812 312.4344ZM429.85812 317.45L429.85812 316.2469L431.06125 316.2469L431.06125 317.45L429.85812 317.45ZM435.655 317.45L435.655 315.3875L431.93625 315.3875L431.93625 314.41876L435.85812 308.85626L436.7175 308.85626L436.7175 314.41876L437.87375 314.41876L437.87375 315.3875L436.7175 315.3875L436.7175 317.45L435.655 317.45ZM435.655 314.41876L435.655 310.5594L432.9675 314.41876L435.655 314.41876ZM439.28 315.2L440.38937 315.10626Q440.51437 315.91876 440.95187 316.325Q441.405 316.73126 442.04562 316.73126Q442.79562 316.73126 443.32687 316.15314Q443.85812 315.575 443.85812 314.6375Q443.85812 313.73126 443.3425 313.21564Q442.8425 312.6844 442.01437 312.6844Q441.51437 312.6844 441.0925 312.91876Q440.68625 313.15314 440.45187 313.5125L439.4675 313.3875L440.29562 308.98126L444.57687 308.98126L444.57687 309.98126L441.13937 309.98126L440.68625 312.29376Q441.45187 311.7469 442.29562 311.7469Q443.42062 311.7469 444.18625 312.52814Q444.9675 313.3094 444.9675 314.54376Q444.9675 315.7 444.29562 316.5594Q443.4675 317.59064 442.04562 317.59064Q440.87375 317.59064 440.12375 316.9344Q439.38937 316.27814 439.28 315.2Z" fill-rule="nonzero"/><path fill="#000000" d="M520.02875 317.45L518.9819 317.45L518.9819 310.73126Q518.59125 311.09064 517.96625 311.46564Q517.3569 311.825 516.8725 311.9969L516.8725 310.98126Q517.7475 310.5594 518.40375 309.98126Q519.0756 309.3875 519.3569 308.825L520.02875 308.825L520.02875 317.45ZM523.06 315.1844L524.1225 315.04376Q524.2944 315.9344 524.7319 316.34064Q525.1694 316.73126 525.7944 316.73126Q526.5444 316.73126 527.06 316.21564Q527.5756 315.7 527.5756 314.9344Q527.5756 314.21564 527.09125 313.7469Q526.6225 313.2625 525.8881 313.2625Q525.59125 313.2625 525.1381 313.3875L525.2631 312.45Q525.3725 312.46564 525.435 312.46564Q526.1069 312.46564 526.6381 312.1219Q527.185 311.7625 527.185 311.02814Q527.185 310.45 526.7944 310.075Q526.40375 309.6844 525.77875 309.6844Q525.1694 309.6844 524.7475 310.075Q524.34125 310.46564 524.2319 311.23126L523.1694 311.04376Q523.3569 309.9969 524.0444 309.41876Q524.7319 308.825 525.7475 308.825Q526.4506 308.825 527.0444 309.1375Q527.6381 309.4344 527.9506 309.95Q528.2631 310.46564 528.2631 311.0594Q528.2631 311.60626 527.96625 312.075Q527.6694 312.52814 527.09125 312.79376Q527.84125 312.96564 528.2631 313.52814Q528.685 314.075 528.685 314.91876Q528.685 316.04376 527.8569 316.825Q527.0444 317.60626 525.7944 317.60626Q524.6694 317.60626 523.9194 316.9344Q523.1694 316.2469 523.06 315.1844ZM530.6381 312.4344L530.6381 311.23126L531.84125 311.23126L531.84125 312.4344L530.6381 312.4344ZM530.6381 317.45L530.6381 316.2469L531.84125 316.2469L531.84125 317.45L530.6381 317.45ZM533.06 313.21564Q533.06 311.6844 533.3725 310.7625Q533.685 309.825 534.2944 309.325Q534.9194 308.825 535.8569 308.825Q536.5444 308.825 537.06 309.10626Q537.59125 309.3875 537.935 309.91876Q538.27875 310.4344 538.46625 311.1844Q538.65375 311.9344 538.65375 313.21564Q538.65375 314.73126 538.34125 315.65314Q538.0444 316.575 537.4194 317.09064Q536.81 317.59064 535.8569 317.59064Q534.6225 317.59064 533.90375 316.7Q533.06 315.6375 533.06 313.21564ZM534.1381 313.21564Q534.1381 315.325 534.6381 316.02814Q535.1381 316.73126 535.8569 316.73126Q536.59125 316.73126 537.0756 316.02814Q537.5756 315.325 537.5756 313.21564Q537.5756 311.09064 537.0756 310.40314Q536.59125 309.7 535.84125 309.7Q535.1225 309.7 534.685 310.3094Q534.1381 311.09064 534.1381 313.21564ZM540.06 313.21564Q540.06 311.6844 540.3725 310.7625Q540.685 309.825 541.2944 309.325Q541.9194 308.825 542.8569 308.825Q543.5444 308.825 544.06 309.10626Q544.59125 309.3875 544.935 309.91876Q545.27875 310.4344 545.46625 311.1844Q545.65375 311.9344 545.65375 313.21564Q545.65375 314.73126 545.34125 315.65314Q545.0444 316.575 544.4194 317.09064Q543.81 317.59064 542.8569 317.59064Q541.6225 317.59064 540.90375 316.7Q540.06 315.6375 540.06 313.21564ZM541.1381 313.21564Q541.1381 315.325 541.6381 316.02814Q542.1381 316.73126 542.8569 316.73126Q543.59125 316.73126 544.0756 316.02814Q544.5756 315.325 544.5756 313.21564Q544.5756 311.09064 544.0756 310.40314Q543.59125 309.7 542.84125 309.7Q542.1225 309.7 541.685 310.3094Q541.1381 311.09064 541.1381 313.21564Z" fill-rule="nonzero"/><path fill="#757575" d="M20.128124 37.55L20.128124 23.2375L30.4875 23.2375L30.4875 24.925L22.034374 24.925L22.034374 29.3L29.940624 29.3L29.940624 30.9875L22.034374 30.9875L22.034374 35.8625L30.815624 35.8625L30.815624 37.55L20.128124 37.55ZM31.690624 37.55L35.4875 32.159374L31.9875 27.175L34.175 27.175L35.76875 29.6125Q36.221874 30.3 36.4875 30.76875Q36.925 30.128124 37.284374 29.628124L39.034374 27.175L41.128124 27.175L37.55 32.065624L41.409374 37.55L39.253124 37.55L37.1125 34.33125L36.55 33.45625L33.83125 37.55L31.690624 37.55ZM48.64375 36.26875Q47.659374 37.096874 46.753124 37.440624Q45.846874 37.784374 44.815624 37.784374Q43.1125 37.784374 42.190624 36.95625Q41.26875 36.1125 41.26875 34.815624Q41.26875 34.05 41.6125 33.425Q41.971874 32.8 42.534374 32.425Q43.096874 32.034374 43.8 31.83125Q44.315624 31.70625 45.3625 31.565624Q47.4875 31.315624 48.4875 30.971874Q48.503124 30.6125 48.503124 30.503124Q48.503124 29.440624 48.003124 28.9875Q47.33125 28.39375 46.003124 28.39375Q44.753124 28.39375 44.159374 28.83125Q43.58125 29.26875 43.3 30.378124L41.58125 30.14375Q41.815624 29.034374 42.346874 28.3625Q42.878124 27.675 43.89375 27.315624Q44.909374 26.940624 46.253124 26.940624Q47.58125 26.940624 48.409374 27.253124Q49.2375 27.565624 49.628124 28.05Q50.01875 28.51875 50.175 29.2375Q50.26875 29.690624 50.26875 30.8625L50.26875 33.20625Q50.26875 35.659374 50.378124 36.315624Q50.4875 36.95625 50.83125 37.55L48.9875 37.55Q48.721874 37.003124 48.64375 36.26875ZM48.4875 32.346874Q47.534374 32.7375 45.6125 33.003124Q44.534374 33.159374 44.08125 33.3625Q43.64375 33.55 43.39375 33.925Q43.14375 34.3 43.14375 34.76875Q43.14375 35.471874 43.675 35.940624Q44.20625 36.409374 45.2375 36.409374Q46.253124 36.409374 47.034374 35.971874Q47.83125 35.51875 48.20625 34.753124Q48.4875 34.14375 48.4875 32.9875L48.4875 32.346874ZM52.8625 37.55L52.8625 27.175L54.440624 27.175L54.440624 28.628124Q54.925 27.878124 55.7375 27.409374Q56.55 26.940624 57.58125 26.940624Q58.7375 26.940624 59.471874 27.425Q60.20625 27.89375 60.51875 28.753124Q61.753124 26.940624 63.721874 26.940624Q65.26875 26.940624 66.09688 27.8Q66.925 28.659374 66.925 30.425L66.925 37.55L65.175 37.55L65.175 31.01875Q65.175 29.95625 65.00313 29.503124Q64.83125 29.034374 64.37813 28.753124Q63.940624 28.471874 63.33125 28.471874Q62.2375 28.471874 61.503124 29.20625Q60.784374 29.925 60.784374 31.51875L60.784374 37.55L59.034374 37.55L59.034374 30.815624Q59.034374 29.64375 58.596874 29.065624Q58.175 28.471874 57.190624 28.471874Q56.45625 28.471874 55.815624 28.8625Q55.190624 29.253124 54.909374 30.003124Q54.628124 30.753124 54.628124 32.175L54.628124 37.55L52.8625 37.55ZM68.8625 41.51875L68.8625 27.175L70.47188 27.175L70.47188 28.51875Q71.03438 27.7375 71.7375 27.346874Q72.45625 26.940624 73.47188 26.940624Q74.8 26.940624 75.81563 27.628124Q76.83125 28.315624 77.34688 29.565624Q77.87813 30.8 77.87813 32.284374Q77.87813 33.878124 77.3 35.159374Q76.7375 36.425 75.64375 37.1125Q74.55 37.784374 73.34688 37.784374Q72.47188 37.784374 71.76875 37.409374Q71.08125 37.034374 70.62813 36.471874L70.62813 41.51875L68.8625 41.51875ZM70.45625 32.425Q70.45625 34.425 71.26875 35.378124Q72.08125 36.33125 73.2375 36.33125Q74.40938 36.33125 75.2375 35.346874Q76.08125 34.3625 76.08125 32.26875Q76.08125 30.3 75.25313 29.315624Q74.44063 28.315624 73.31563 28.315624Q72.19063 28.315624 71.31563 29.378124Q70.45625 30.425 70.45625 32.425ZM79.83125 37.55L79.83125 23.2375L81.58125 23.2375L81.58125 37.55L79.83125 37.55ZM90.97188 34.20625L92.78438 34.440624Q92.3625 36.01875 91.19063 36.909374Q90.03438 37.784374 88.22188 37.784374Q85.95625 37.784374 84.6125 36.39375Q83.28438 34.9875 83.28438 32.45625Q83.28438 29.83125 84.62813 28.39375Q85.97188 26.940624 88.12813 26.940624Q90.20625 26.940624 91.51875 28.3625Q92.84688 29.76875 92.84688 32.346874Q92.84688 32.503124 92.83125 32.815624L85.09688 32.815624Q85.19063 34.51875 86.06563 35.425Q86.94063 36.33125 88.2375 36.33125Q89.20625 36.33125 89.87813 35.83125Q90.56563 35.315624 90.97188 34.20625ZM85.19063 31.3625L90.9875 31.3625Q90.87813 30.065624 90.33125 29.409374Q89.4875 28.39375 88.14375 28.39375Q86.94063 28.39375 86.1125 29.20625Q85.28438 30.003124 85.19063 31.3625Z" fill-rule="nonzero"/></svg>